<svg id="Layer_2" data-name="Layer 2" xmlns="http://www.w3.org/2000/svg" viewBox="0 0 365.73 316.85">
  <defs>
    <style>
      .cls-1 {
        fill: #f8db42;
      }

      .cls-2 {
        fill: #0f78bb;
      }
    </style>
  </defs>
  <g id="Layer_1-2" data-name="Layer 1">
    <g>
      <g>
        <path class="cls-1" d="M167.33,47.34l-2.35,3.21c-24.19,19.84-49.09,38.81-74.7,56.91l23.13-7.15c16.73-3.93,34.92-6.84,51.46-.85,3.75-3.59,27.57-20.79,29.97-19.54.55.29.94.75,1.24,1.3,28.65,53.45,4.19,119.56-50.14,144.34-1.8-.06-3.67-.14-5.34-.87-20.39-8.88-46.52-26.67-62.28-42.34-1.3-1.29-2.07-3.01-2.79-4.66l-.67,1.47h-36.57c-1.35.12-2.57-.37-3.68-1.47,26.08,16.67,52.22,33.62,78.41,50.83,1.65,1.64,1.75,5.32-.99,5.13C44,238.3-10.28,178.71,1.65,111.27,15.11,35.21,106.06.15,167.33,47.34Z"/>
        <path class="cls-2" d="M145.94,225.55c27.82,12.65,53.27,19.74,84.46,17.7,2.47-.16,15.57-2.89,16.23-2.33,1.61,1.38,2.66,15.87,1.09,17.41l-53.11,16.56c-.42,1.7.34,1.21.93,1.68,13.06,10.3,31.16,18.1,44.72,28.2,3.81,3.98-.91,8.85-5.64,6.36-15.56-8.72-30.81-21.25-46.43-29.47-1.34-.71-2.55-1.71-4.21-1.59l-112.1,36.77c-4-.22-5.3-5.52-1.85-7.67l25.83-8.99c5.2-22.2,11.03-44.32,16.16-66.53.32-1.39,1.35-2.95.02-4.05l-75.47-49.1-1.97-2.82h40.92c20.69,19.92,44.41,36.04,70.42,47.87ZM105.39,296.98l72.24-23.93-58.23-37.19-14.01,61.12Z"/>
      </g>
      <path class="cls-2" d="M167.33,47.34l39.47-28.73c1.89-3.01-5.89-13.79-1.83-17.27,6.97-5.98,8.23,9.74,9.96,12.83,1.46,2.61,9.44,1.31,12.53,1.47,42.05,2.29,84.62,3.84,126.79,6.67,2.75.18,6.23.41,8.89.69,2.88.31,3.69,1.72.76,3.04-5.23,2.36-14.04,3.76-19.98,5.82-16.79,5.83-35.11,14.24-45.86,28.75-22.68-1.48-45.29.87-67.32,6.62l69.14,233.25c1.96,6.12-4.94,9.14-7.74,3.31-22.69-77.93-46.66-155.61-68.77-233.62-9.72,1.59-18.57,6.69-27.28,11.05-.44.22-1.7.04-2.71.57-10.05,5.23-19.25,12.17-28.23,19.01-17.01-5.61-34.34-3.11-51.37.94-3.42.81-24.41,8.4-25.34,7.46-.39-.4.16-2.57,1.09-2.95,25.96-19.43,53.17-38.46,77.8-58.9Z"/>
    </g>
  </g>
</svg>
